<?xml version="1.0" encoding="UTF-8"?>
<svg width="30px" height="30px" viewBox="0 0 30 30" version="1.1" xmlns="http://www.w3.org/2000/svg" xmlns:xlink="http://www.w3.org/1999/xlink">
    <title>1189163</title>
    <g id="Page-1" stroke="none" stroke-width="1" fill="none" fill-rule="evenodd">
        <g id="Artboard" transform="translate(-517.000000, -345.000000)" fill-rule="nonzero">
            <g id="1189163" transform="translate(517.000000, 345.000000)">
                <path d="M7.85345,29.1465 C7.7605,29.053 7.6315,29 7.5,29 C7.3685,29 7.2395,29.053 7.1465,29.1465 C7.05345,29.2395 7,29.368 7,29.5 C7,29.6315 7.0535,29.7605 7.1465,29.8535 C7.2395,29.9465 7.3685,30 7.5,30 C7.6315,30 7.7605,29.9465 7.85345,29.8535 C7.9465,29.76 8,29.6315 8,29.5 C8,29.368 7.94645,29.2395 7.85345,29.1465 Z" id="Path" fill="#05953A"></path>
                <path d="M1.86741008,22.1595886 C1.68056861,21.9577404 1.3655319,21.9458377 1.16385463,22.1325958 L1.15957316,22.13658 C0.957846108,22.3234875 0.945748459,22.6385857 1.13258992,22.8403841 C1.2307153,22.9463631 1.36413793,23 1.49795883,23 C1.61903489,23 1.74035987,22.9561243 1.83614537,22.8673769 L1.84042684,22.8633927 C2.04215389,22.6764852 2.05425154,22.3613869 1.86741008,22.1595886 Z" id="Path" fill="#05953A"></path>
                <path d="M28.6069126,21.1555498 C27.9119075,20.0739927 26.5157524,19.6916465 25.359183,20.2661029 L19.3751548,23.2387158 C19.0833979,23.383677 18.9654072,23.7355667 19.1116401,24.0247277 C19.257873,24.3138888 19.6126134,24.4308534 19.9046065,24.2859508 L25.8886347,21.3133379 C26.5015722,21.0087144 27.2417176,21.2114844 27.6102245,21.784828 C27.8106966,22.0968899 27.8698987,22.4659993 27.7767823,22.8242731 C27.683725,23.182547 27.4520566,23.4774479 27.1244949,23.6546813 L19.0800301,28.0072078 C18.086828,28.5445893 16.9638774,28.8285962 15.8323596,28.8285962 L10.5908401,28.8285962 C10.2645782,28.8285962 10,29.0908149 10,29.4142981 C10,29.7377813 10.2645782,30 10.5908401,30 L15.8323596,30 C17.1610407,30 18.4798548,29.6664428 19.6461731,29.0354661 L27.6906379,24.6829395 C28.2996167,24.3534237 28.7480643,23.7824229 28.9211214,23.1164212 C29.0941194,22.450361 28.9795555,21.7356876 28.6069126,21.1555498 Z" id="Path" fill="#05953A"></path>
                <path d="M18.089428,22.9526289 L15.4119425,21.0753144 C14.0246371,20.1026649 12.2859244,19.5670103 10.5160753,19.5670103 L5.92619173,19.5670103 C5.92619173,19.2538505 5.63929999,19 5.28552236,19 L0.640669376,19 C0.286891747,19 0,19.2538505 0,19.5670103 C0,19.8801701 0.286891747,20.1340206 0.640669376,20.1340206 L4.64485298,20.1340206 L4.64485298,28.8659794 L0.640669376,28.8659794 C0.286891747,28.8659794 0,29.1198299 0,29.4329897 C0,29.7461495 0.286891747,30 0.640669376,30 L5.28552236,30 C5.63929999,30 5.92619173,29.7461495 5.92619173,29.4329897 L5.92619173,20.7010309 L10.5160753,20.7010309 C11.9983279,20.7010309 13.4544413,21.1496495 14.6162312,21.9642732 L17.2937166,23.8415876 C17.60899,24.0626082 17.7633273,24.4049691 17.7066921,24.757366 C17.6499929,25.1097629 17.3938532,25.4003557 17.0214962,25.5347938 C16.6782255,25.6587423 16.2886986,25.6243814 15.9797678,25.442768 L12.5591699,23.4322629 C12.2645261,23.2589845 11.8667345,23.3300876 11.671074,23.5909124 C11.4752855,23.8517938 11.5555613,24.2036804 11.8503333,24.3769021 L15.2709312,26.3874072 C15.6705807,26.6223196 16.1328878,26.7423557 16.5986544,26.7423557 C16.9051506,26.7423557 17.2131845,26.6903041 17.5055219,26.5847835 C18.3043085,26.2964021 18.8537465,25.6729742 18.9752815,24.9170361 C19.0967524,24.1610979 18.7656545,23.4267629 18.089428,22.9526289 Z" id="Path" fill="#05953A"></path>
                <path d="M29.3593306,9.86597938 L25.355147,9.86597938 L25.355147,1.13402062 L29.3593306,1.13402062 C29.7131083,1.13402062 30,0.880170103 30,0.567010309 C30,0.253850515 29.7131083,0 29.3593306,0 L24.7144776,0 C24.3607,0 24.0738083,0.253850515 24.0738083,0.567010309 L24.0738083,9.29896907 L19.4839247,9.29896907 C18.0016721,9.29896907 16.5455587,8.85035052 15.3837688,8.0357268 L12.7062834,6.15841237 C12.39101,5.93739175 12.2366727,5.59503093 12.2933079,5.24263402 C12.3500071,4.89023711 12.6061468,4.59964433 12.9785038,4.46520619 C13.3217745,4.34125773 13.7113014,4.37567526 14.0202322,4.55723196 L17.4408301,6.56773711 C17.7354739,6.74101546 18.1333296,6.66991237 18.328926,6.40908763 C18.5247145,6.14820619 18.4444387,5.79631959 18.1496667,5.62309794 L14.7290688,3.61259278 C14.0663604,3.2231134 13.2311197,3.14928866 12.4944781,3.41521649 C11.6956915,3.70359794 11.1462535,4.32702577 11.0247185,5.08296392 C10.9032476,5.83890206 11.2343455,6.57323711 11.910572,7.04737113 L14.5880575,8.92468557 C15.9753629,9.89733505 17.7140756,10.4329897 19.4839247,10.4329897 L24.0738083,10.4329897 C24.0738083,10.7461495 24.3607,11 24.7144776,11 L29.3593306,11 C29.7131083,11 30,10.7461495 30,10.4329897 C30,10.1198299 29.7131083,9.86597938 29.3593306,9.86597938 Z" id="Path" fill="#E3672A"></path>
                <path d="M22.85345,0.1465 C22.7605,0.0535 22.6315,0 22.5,0 C22.3685,0 22.2395,0.0535 22.1465,0.1465 C22.0535,0.2395 22,0.3685 22,0.5 C22,0.632 22.05345,0.7605 22.1465,0.854 C22.2395,0.947 22.3685,1 22.5,1 C22.6315,1 22.7605,0.947 22.85345,0.854 C22.94645,0.7605 23,0.6315 23,0.5 C23,0.3685 22.9465,0.2395 22.85345,0.1465 Z" id="Path" fill="#E3672A"></path>
                <path d="M19.4118358,0 L14.108006,0 C12.7853423,0 11.4724421,0.333557853 10.3114647,0.964535684 L2.30343221,5.31701174 C1.69721134,5.64652825 1.25079469,6.21753009 1.07852138,6.88353296 C0.906306897,7.5495944 1.02035194,8.26426919 1.39130712,8.844408 C1.86630856,9.58702082 2.67038788,10 3.50034643,10 C3.87918301,10 4.26354833,9.91396023 4.62432827,9.73391513 L10.5812556,6.76129675 C10.8716911,6.61633526 10.9891475,6.2644449 10.8435769,5.97528333 C10.6980062,5.6860632 10.344696,5.56909831 10.0542016,5.7140598 L4.09727431,8.68667819 C3.4869951,8.99118517 2.75026058,8.78853194 2.38348137,8.21518728 C2.18385843,7.90312473 2.12498319,7.5340147 2.21767787,7.17574018 C2.31031374,6.81746566 2.54093293,6.52256421 2.86701118,6.34533048 L10.8750437,1.99279585 C11.8637477,1.45541336 12.9816127,1.17140598 14.108006,1.17140598 L19.4118358,1.17140598 C19.7366201,1.17140598 20,0.909186751 20,0.58570299 C20,0.262219229 19.7366201,0 19.4118358,0 Z" id="Path" fill="#E3672A"></path>
                <path d="M28.8693193,7.1617126 C28.6835768,6.95882643 28.3687457,6.94498197 28.1659275,7.13073685 L28.1615963,7.13472087 C27.9588777,7.32047576 27.9449881,7.63546226 28.1306807,7.83829863 C28.2289037,7.94556834 28.3632197,8 28.4979838,8 C28.6180617,8 28.7384881,7.95677339 28.8340725,7.86927438 L28.8384037,7.86529036 C29.0411223,7.67953547 29.0550119,7.36454897 28.8693193,7.1617126 Z" id="Path" fill="#E3672A"></path>
                <path d="M18.8263066,12 C18.1704878,12 17.5309606,12.1705115 17,12.4786183 C16.4689734,12.1705115 15.8295122,12 15.1736934,12 C13.4237,12 12,13.1769084 12,14.6235038 C11.9998681,15.4678321 12.7845685,16.4268321 14.3987547,17.5552214 C15.5080337,18.3306183 16.6011529,18.8935573 16.6471256,18.9171221 C16.7548347,18.972374 16.8773844,19 16.999934,19 C17.1224837,19 17.2450334,18.972374 17.3527425,18.9171221 C17.3987151,18.8935573 18.4918344,18.3305649 19.6011134,17.5552214 C21.2153655,16.4268321 22,15.4678855 22,14.6235038 C22,13.1769084 20.5763,12 18.8263066,12 Z M16.9998021,17.827313 C15.3656966,16.9364962 13.3190908,15.472855 13.3190908,14.6235038 C13.3190908,13.7661908 14.1510171,13.0687023 15.1736274,13.0687023 C15.6851305,13.0687023 16.1616099,13.2396947 16.5152099,13.5502595 C16.640134,13.6599084 16.8158457,13.7222672 17,13.7222672 C17.1841543,13.7222672 17.359866,13.6599084 17.4847901,13.5502595 C17.8383901,13.2396947 18.3148695,13.0687023 18.8263726,13.0687023 C19.8489829,13.0687023 20.6809092,13.7661908 20.6809092,14.6235038 C20.6809092,15.4711985 18.6339076,16.9355878 16.9998021,17.827313 Z" id="Shape" fill="#031435"></path>
            </g>
        </g>
    </g>
</svg>