<?xml version="1.0" encoding="UTF-8"?>
<svg width="55px" height="48px" viewBox="0 0 55 48" version="1.1" xmlns="http://www.w3.org/2000/svg" xmlns:xlink="http://www.w3.org/1999/xlink">
    <title>126122</title>
    <g id="Page-1" stroke="none" stroke-width="1" fill="none" fill-rule="evenodd">
        <g id="Artboard" transform="translate(-271.000000, -251.000000)" fill="#031435" fill-rule="nonzero">
            <g id="126122" transform="translate(271.000000, 251.000000)">
                <path d="M39.5132075,26 L32.4867925,26 C30.5637736,26 29,27.6444444 29,29.6666667 L29,35.3333333 C29,37.3555556 30.5637736,39 32.4867925,39 L39.5132075,39 C41.4362264,39 43,37.3555556 43,35.3333333 L43,29.6666667 C43,27.6444444 41.4362264,26 39.5132075,26 Z M40.4641509,35.3333333 C40.4641509,35.8888889 40.0309434,36.3333333 39.5132075,36.3333333 L32.4867925,36.3333333 C31.9584906,36.3333333 31.5358491,35.8777778 31.5358491,35.3333333 L31.5358491,29.6666667 C31.5358491,29.1111111 31.9690566,28.6666667 32.4867925,28.6666667 L39.5132075,28.6666667 C40.0415094,28.6666667 40.4641509,29.1222222 40.4641509,29.6666667 L40.4641509,35.3333333 Z" id="Shape"></path>
                <path d="M55,15.7266557 C55,15.4907559 54.9438087,15.2660894 54.820188,15.0638895 L46.6387413,0.685232857 C46.402738,0.269599813 45.953208,0 45.4699632,0 L9.51879853,0 C9.03555374,0 8.5860237,0.258366487 8.35002043,0.685232857 L0.179812015,15.0638895 C0.0674295055,15.2660894 0,15.4907559 0,15.7266557 C0,18.9506202 1.94421741,21.7140183 4.72006539,22.9384507 L4.72006539,46.6520009 C4.72006539,47.3934004 5.32693094,48 6.0686555,48 L13.5196159,48 C13.5308541,48 13.5420924,48 13.5533306,48 L24.004904,48 C24.0161422,48 24.0273805,48 24.0386187,48 L48.9201063,48 C49.6618308,48 50.2686964,47.3934004 50.2686964,46.6520009 L50.2686964,23.1069506 C50.2686964,23.050784 50.2686964,23.0058507 50.2574581,22.9609174 C53.0445443,21.7364849 55,18.9618535 55,15.7266557 Z M10.3054761,2.70723145 L44.6832857,2.70723145 L51.0778504,13.9517903 L3.92214957,13.9517903 L10.3054761,2.70723145 Z M39.142828,16.6365551 C38.7157744,19.0629534 36.591745,20.9052188 34.040662,20.9052188 C31.4895791,20.9052188 29.3655497,19.0629534 28.9384961,16.6365551 L39.142828,16.6365551 Z M26.0727421,16.6365551 C25.6456886,19.0629534 23.5216592,20.9052188 20.9705762,20.9052188 C18.4194933,20.9052188 16.2954638,19.0629534 15.857172,16.6365551 L26.0727421,16.6365551 Z M2.78708623,16.6365551 L13.0026563,16.6365551 C12.5756028,19.0629534 10.4403351,20.9052188 7.88925215,20.9052188 C5.33816919,20.9164521 3.21413976,19.0629534 2.78708623,16.6365551 Z M22.6563139,45.3040019 L14.9019207,45.3040019 L14.9019207,30.7568453 C14.9019207,29.7009127 15.7560278,28.8359466 16.8236616,28.8359466 L20.7458112,28.8359466 C21.8022068,28.8359466 22.6675521,29.6896794 22.6675521,30.7568453 L22.6675521,45.3040019 L22.6563139,45.3040019 Z M47.5715161,45.3040019 L25.3534941,45.3040019 L25.3534941,30.7568453 C25.3534941,28.2181137 23.2856559,26.1399485 20.7345729,26.1399485 L16.8124234,26.1399485 C14.2725787,26.1399485 12.1935022,28.2068804 12.1935022,30.7568453 L12.1935022,45.3152352 L7.41724561,45.3152352 L7.41724561,23.6012169 C7.57458112,23.6124503 7.73191663,23.6124503 7.88925215,23.6124503 C10.6089089,23.6124503 13.0138946,22.2307512 14.4299142,20.1301194 C15.8459338,22.2307512 18.2509195,23.6124503 20.9705762,23.6124503 C23.6902329,23.6124503 26.0839804,22.2307512 27.5112383,20.1301194 C28.9272579,22.2307512 31.3322436,23.6124503 34.040662,23.6124503 C36.7603188,23.6124503 39.1540662,22.2307512 40.5700858,20.1301194 C41.9861054,22.2307512 44.3910911,23.6124503 47.1107479,23.6124503 C47.2680834,23.6124503 47.4141806,23.6012169 47.5715161,23.6012169 L47.5715161,45.3040019 L47.5715161,45.3040019 Z M47.1107479,20.9164521 C44.5596649,20.9164521 42.4356355,19.0741868 42.0085819,16.6477884 L52.224152,16.6477884 C51.7858602,19.0629534 49.6618308,20.9164521 47.1107479,20.9164521 Z" id="Shape"></path>
            </g>
        </g>
    </g>
</svg>