<?xml version="1.0" encoding="UTF-8"?>
<svg width="56px" height="54px" viewBox="0 0 56 54" version="1.1" xmlns="http://www.w3.org/2000/svg" xmlns:xlink="http://www.w3.org/1999/xlink">
    <title>1584892</title>
    <g id="Page-1" stroke="none" stroke-width="1" fill="none" fill-rule="evenodd">
        <g id="Artboard" transform="translate(-457.000000, -153.000000)" fill="#031435" fill-rule="nonzero">
            <g id="1584892" transform="translate(457.000000, 153.000000)">
                <path d="M55.892011,29.5984211 C55.3892066,24.5180459 53.1298133,19.7285084 49.5297905,16.1119906 C46.4532443,13.0215517 42.6876252,11.0355708 38.725347,10.1525098 L38.725347,7.36081958 C40.3436838,6.9563717 41.5466081,5.48482308 41.5466081,3.73573158 C41.5466081,1.67580524 39.8783956,0 37.8278023,0 L29.9526841,0 C27.9020908,0 26.2338782,1.67580524 26.2338782,3.73573158 C26.2338782,5.48471321 27.4368025,6.95626183 29.05503,7.36081958 L29.05503,10.1603109 C25.1048925,11.0471077 21.3517424,13.0303416 18.2839464,16.1121004 C17.6125925,16.7865099 16.9935207,17.4939915 16.4268404,18.2292714 C16.3993868,18.2271838 16.3719333,18.2250961 16.3439329,18.2250961 L8.54964398,18.2250961 C7.94566616,18.2250961 7.45587756,18.7170041 7.45587756,19.3238407 C7.45587756,19.9306774 7.94566616,20.4225853 8.54964398,20.4225853 L14.9385524,20.4225853 C14.1366029,21.7712943 13.4899682,23.1876859 12.9977733,24.64572 L1.09376642,24.64572 C0.489788603,24.64572 0,25.1376279 0,25.7444646 C0,26.3513012 0.489788603,26.8432091 1.09376642,26.8432091 L12.3796859,26.8432091 C12.0644624,28.2332309 11.8835534,29.6478646 11.8368496,31.0664537 L7.00010509,31.0664537 C6.39612728,31.0664537 5.90633867,31.5583616 5.90633867,32.1651983 C5.90633867,32.7720349 6.39612728,33.2639429 7.00010509,33.2639429 L11.8717407,33.2639429 C11.9640546,34.6861579 12.1916674,36.1009014 12.5546885,37.4871874 L5.4688321,37.4871874 C4.86485429,37.4871874 4.37506568,37.9790954 4.37506568,38.585932 C4.37506568,39.1927686 4.86485429,39.6846766 5.4688321,39.6846766 L13.2527302,39.6846766 C14.3257151,42.5360286 16.0025684,45.2085051 18.2839464,47.5002665 C21.8874692,51.1201904 26.6602284,53.3904165 31.7228356,53.8928724 C32.4453777,53.9645105 33.1684667,54 33.8905713,54 C38.1586666,54 42.3725111,52.7591877 45.9480336,50.4201803 C46.4542287,50.0890187 46.5974027,49.4083464 46.2677415,48.8998474 C45.9380803,48.3913484 45.260492,48.2475227 44.7542969,48.5786844 C36.9276325,53.6985045 26.4457408,52.5915193 19.8307508,45.946422 C12.0691656,38.1495107 12.0691656,25.4630761 19.8307508,17.6660549 C27.5922267,9.86925346 40.221182,9.86925346 47.9828766,17.6660549 C54.5891164,24.3024722 55.6971018,34.8230614 50.6173224,42.6815024 C50.2883175,43.1904409 50.4323665,43.8710033 50.9388897,44.2013958 C51.4457411,44.5318982 52.1230013,44.3871935 52.4518968,43.878255 C55.1659688,39.6794026 56.3877059,34.608147 55.892011,29.5984211 Z M28.4214111,3.73584146 C28.4214111,2.88761064 29.1082964,2.19759904 29.9526841,2.19759904 L37.8278023,2.19759904 C38.67219,2.19759904 39.3590753,2.88761064 39.3590753,3.73584146 C39.3590753,4.58407227 38.67219,5.27408387 37.8278023,5.27408387 L37.6315806,5.27408387 L30.1487964,5.27408387 L29.9526841,5.27408387 C29.1082964,5.27408387 28.4214111,4.5839624 28.4214111,3.73584146 Z M31.2425628,9.78256252 L31.2425628,7.47157304 L36.5378142,7.47157304 L36.5378142,9.77860704 C34.7794753,9.56852707 33.0005736,9.56984557 31.2425628,9.78256252 Z" id="XMLID_389_"></path>
                <path d="M48.5,45 C48.104,45 47.7185,45.1605 47.43965,45.4395 C47.15915,45.7185 47,46.1055 47,46.5 C47,46.8945 47.15915,47.2815 47.43965,47.5605 C47.7185,47.841 48.10415,48 48.5,48 C48.8945,48 49.28,47.841 49.5605,47.5605 C49.8395,47.2815 50,46.8945 50,46.5 C50,46.1055 49.83965,45.7185 49.5605,45.4395 C49.28,45.1605 48.89435,45 48.5,45 Z" id="XMLID_391_"></path>
                <path d="M34.5,15 C25.4019139,15 18,22.4018075 18,31.5 C18,40.5981925 25.4019139,48 34.5,48 C43.5980861,48 51,40.5981925 51,31.5 C51,22.4018075 43.5980861,15 34.5,15 Z M34.5,45.8727382 C26.5747797,45.8727382 20.1272618,39.4251139 20.1272618,31.5 C20.1272618,23.5748861 26.5747797,17.1272618 34.5,17.1272618 C42.4252203,17.1272618 48.8727382,23.5748861 48.8727382,31.5 C48.8727382,39.4251139 42.4252203,45.8727382 34.5,45.8727382 Z" id="XMLID_394_"></path>
                <path d="M41.0789379,23.3154854 L35.5050641,28.6507577 C35.0389428,28.4301468 34.5146408,28.3055146 33.9604045,28.3055146 C33.4060555,28.3055146 32.8818661,28.4301468 32.4157448,28.6507577 L29.9211746,26.2629247 C29.4816117,25.8422775 28.7692632,25.8422775 28.3295878,26.2629247 C27.8901374,26.683572 27.8901374,27.3656561 28.3295878,27.7863034 L30.824158,30.1741364 C30.5935731,30.6203133 30.4634823,31.1221816 30.4634823,31.6527034 C30.4634823,33.4983808 32.032112,35 33.9604045,35 C35.888697,35 37.4573266,33.4983808 37.4573266,31.6527034 C37.4573266,31.1221816 37.3271233,30.6203133 37.0966509,30.1741364 L42.5068984,24.9953815 L42.5068984,24.9953815 L42.6704122,24.8388641 C43.1098626,24.4182168 43.1098626,23.7361327 42.6704122,23.3154854 C42.2309618,22.8948382 41.5186133,22.8948382 41.0789379,23.3154854 Z M33.9604045,32.8457043 C33.2732639,32.8457043 32.7141885,32.3105505 32.7141885,31.6528112 C32.7141885,30.9950718 33.2732639,30.459918 33.9604045,30.459918 C34.647545,30.459918 35.2066205,30.9950718 35.2066205,31.6528112 C35.2066205,32.3105505 34.647545,32.8457043 33.9604045,32.8457043 Z" id="XMLID_397_"></path>
                <path d="M46.9748847,29 L46.0251153,29 C45.4590466,29 45,29.67155 45,30.5 C45,31.32845 45.4590466,32 46.0251153,32 L46.9748847,32 C47.5409534,32 48,31.32845 48,30.5 C48,29.67155 47.5409534,29 46.9748847,29 Z" id="XMLID_398_"></path>
                <path d="M23.9748496,29 L23.0251504,29 C22.4590623,29 22,29.67155 22,30.5 C22,31.32845 22.4590623,32 23.0251504,32 L23.9748496,32 C24.5409377,32 25,31.32845 25,30.5 C25,29.67155 24.5409377,29 23.9748496,29 Z" id="XMLID_399_"></path>
                <path d="M33.5,22 C34.3283,22 35,21.5410402 35,20.9748496 L35,20.0251504 C35,19.4589598 34.3283,19 33.5,19 C32.6717,19 32,19.4589598 32,20.0251504 L32,20.9748496 C32,21.5410402 32.6717,22 33.5,22 Z" id="XMLID_400_"></path>
                <path d="M33.5,41 C32.6717,41 32,41.4589598 32,42.0251504 L32,42.9748496 C32,43.5410402 32.6717,44 33.5,44 C34.3283,44 35,43.5410402 35,42.9748496 L35,42.0251504 C35,41.4589598 34.3283,41 33.5,41 Z" id="XMLID_424_"></path>
                <path d="M1.5,37 C1.1055,37 0.7185,37.1605 0.4395,37.4395 C0.1605,37.7185 0,38.1055 0,38.5 C0,38.896 0.16035,39.2815 0.4395,39.5605 C0.71865,39.8395 1.1055,40 1.5,40 C1.8945,40 2.2815,39.8395 2.56035,39.5605 C2.83935,39.2815 3,38.8945 3,38.5 C3,38.1055 2.8395,37.7185 2.56035,37.4395 C2.2815,37.1605 1.8945,37 1.5,37 Z" id="XMLID_425_"></path>
            </g>
        </g>
    </g>
</svg>