<?xml version="1.0" encoding="UTF-8"?>
<svg width="18px" height="17px" viewBox="0 0 18 17" version="1.1" xmlns="http://www.w3.org/2000/svg" xmlns:xlink="http://www.w3.org/1999/xlink">
    <title>159832</title>
    <g id="Page-1" stroke="none" stroke-width="1" fill="none" fill-rule="evenodd">
        <g id="Artboard" transform="translate(-535.000000, -262.000000)" fill="#031435" fill-rule="nonzero">
            <g id="159832" transform="translate(535.000000, 262.000000)">
                <path d="M3.64761895,11.3004559 C5.42973238,13.3048073 7.57500757,14.8829258 10.0235416,15.9995856 C10.9557816,16.4152507 12.2025122,16.9084128 13.5915124,16.9929548 C13.6776229,16.9964774 13.7599895,17 13.8461,17 C14.77834,17 15.5271271,16.6970576 16.1373887,16.0735599 C16.1411326,16.0700373 16.1486205,16.0629921 16.1523644,16.055947 C16.3695127,15.8093659 16.6166125,15.587443 16.874944,15.3514298 C17.050909,15.1929134 17.2306179,15.0273518 17.402839,14.8582677 C18.2002973,14.0762536 18.2002973,13.0828844 17.3953511,12.3255284 L15.1452457,10.2084542 C14.7633642,9.83506009 14.3066041,9.63779528 13.8273803,9.63779528 C13.3481565,9.63779528 12.8876524,9.83506009 12.4945392,10.2049316 L11.1542102,11.4660174 C11.0306603,11.3990883 10.9033665,11.3392043 10.7835605,11.2828429 C10.6338031,11.2123912 10.4952775,11.1454621 10.3717276,11.0714878 C9.15120453,10.3423125 8.04299954,9.39121426 6.98346572,8.16887692 C6.44808291,7.53128885 6.08866507,6.99585578 5.83782138,6.44985495 C6.18975134,6.15043514 6.51921769,5.83692499 6.83745223,5.53046001 C6.9497703,5.42125984 7.06583231,5.31205968 7.18189432,5.20285951 C7.58623938,4.82242022 7.80338766,4.38209697 7.80338766,3.93472855 C7.80338766,3.48736013 7.58998332,3.04703688 7.18189432,2.6665976 L6.06620146,1.61686697 C5.93516371,1.49357646 5.81161383,1.37380854 5.68432001,1.25051803 C5.43722025,1.01098218 5.17888868,0.76440116 4.92430105,0.542478243 C4.53867567,0.186697058 4.08565944,0 3.60643566,0 C3.13095582,0 2.67419565,0.186697058 2.27359453,0.546000829 L0.873362549,1.86344799 C0.364187285,2.34251969 0.0759042307,2.92374637 0.0160012584,3.5965603 C-0.0551335212,4.43845835 0.109599653,5.33319519 0.53640833,6.41462909 C1.19159709,8.08785744 2.17999613,9.64131786 3.64761895,11.3004559 Z M0.929521586,3.6705346 C0.974448815,3.20203067 1.16538954,2.81102362 1.52480737,2.47285537 L2.91755148,1.16245338 C3.13469975,0.965188562 3.37431164,0.863033568 3.60643566,0.863033568 C3.83481574,0.863033568 4.06693976,0.965188562 4.2803441,1.16949855 C4.53118779,1.38789888 4.76705575,1.61686697 5.02164338,1.8599254 C5.1489372,1.98321591 5.27997495,2.10650642 5.4110127,2.23331952 L6.52670556,3.28305015 C6.75882958,3.50145048 6.87863552,3.72337339 6.87863552,3.94177373 C6.87863552,4.16017406 6.75882958,4.38209697 6.52670556,4.60049731 C6.41064355,4.70969747 6.29458154,4.82242022 6.17851953,4.93162039 C5.83033351,5.26274347 5.50461109,5.57625363 5.14519326,5.87567344 C5.13770539,5.88271861 5.13396145,5.88624119 5.12647358,5.89328637 C4.81572691,6.185661 4.86439808,6.4639453 4.93927679,6.67530046 C4.94302073,6.68586821 4.94676466,6.69291339 4.9505086,6.70348114 C5.23879165,7.35515955 5.63939278,7.97513469 6.26463006,8.71487775 C7.38781079,10.0182346 8.57089449,11.0292167 9.87378414,11.8077082 C10.0347734,11.9063407 10.2069944,11.9838375 10.3679837,12.0613344 C10.5177411,12.1317862 10.6562667,12.1987153 10.7798166,12.2726896 C10.7947923,12.2797348 10.8060241,12.2867799 10.8209999,12.2938251 C10.9445498,12.3537091 11.0643557,12.3818898 11.1841617,12.3818898 C11.4836765,12.3818898 11.6783612,12.2022379 11.7420081,12.1423539 L13.1422401,10.8249068 C13.3593883,10.6205968 13.5952563,10.5113966 13.8273803,10.5113966 C14.1119194,10.5113966 14.3440434,10.6769581 14.4900569,10.8249068 L16.7476502,12.9455035 C17.1969225,13.3682138 17.1931786,13.82615 16.7364184,14.2735184 C16.5791731,14.4320348 16.4144399,14.583506 16.2384749,14.7420224 C15.9763994,14.9815582 15.7030921,15.2281392 15.4559924,15.5064235 C15.0254398,15.9432242 14.5125206,16.1475342 13.8498439,16.1475342 C13.786197,16.1475342 13.7188062,16.1440116 13.6551593,16.140489 C12.4271483,16.0665147 11.2852479,15.6156237 10.4278866,15.2316618 C8.09915858,14.1713634 6.05496965,12.6672192 4.35896675,10.7579776 C2.96247871,9.17633651 2.02275083,7.70389557 1.40125749,6.12577704 C1.01563211,5.15706589 0.869618614,4.37857439 0.929521586,3.6705346 Z" id="Shape"></path>
            </g>
        </g>
    </g>
</svg>