<?xml version="1.0" encoding="UTF-8"?>
<svg width="51px" height="51px" viewBox="0 0 51 51" version="1.1" xmlns="http://www.w3.org/2000/svg" xmlns:xlink="http://www.w3.org/1999/xlink">
    <title>188631</title>
    <g id="Page-1" stroke="none" stroke-width="1" fill="none" fill-rule="evenodd">
        <g id="Artboard" transform="translate(-150.000000, -161.000000)" fill="#031435" fill-rule="nonzero">
            <g id="188631" transform="translate(150.000000, 161.000000)">
                <path d="M34.0000391,39 C34.368015,39 34.6666927,38.7013165 34.6666927,38.3333333 L34.6666927,37.6666667 L35.3333464,37.6666667 C35.7013223,37.6666667 36,37.3679831 36,37 C36,36.6320169 35.7013223,36.3333333 35.3333464,36.3333333 L34.6666927,36.3333333 L34.6666927,35.6666667 C34.6666927,35.2986835 34.368015,35 34.0000391,35 C33.6320631,35 33.3333854,35.2986835 33.3333854,35.6666667 L33.3333854,36.3333333 L32.6666536,36.3333333 C32.2986777,36.3333333 32,36.6320169 32,37 C32,37.3679831 32.2986777,37.6666667 32.6666536,37.6666667 L33.3333073,37.6666667 L33.3333073,38.3333333 C33.3333073,38.7013165 33.631985,39 34.0000391,39 Z" id="Path"></path>
                <path d="M47,6 C47,6.55197469 47.4480253,7 48,7 C48.5519747,7 49,6.55197469 49,6 C49.5519747,6 50,5.55197469 50,5 C50,4.44802531 49.5519747,4 49,4 C49,3.44802531 48.5519747,3 48,3 C47.4480253,3 47,3.44802531 47,4 C46.4480253,4 46,4.44802531 46,5 C46,5.55197469 46.4480253,6 47,6 Z" id="Path"></path>
                <path d="M26.0001004,10 C19.3829541,10 14,15.4426328 14,22.1333672 C14,22.6117266 14.3840088,23 14.8571142,23 C15.3302195,23 15.7142283,22.6117266 15.7142283,22.1333672 C15.7142283,16.3986406 20.3282608,11.7333672 26,11.7333672 C31.6717392,11.7333672 36.2857717,16.3986406 36.2857717,22.1333672 C36.2857717,22.6117266 36.6697805,23 37.1428858,23 C37.6159912,23 38,22.6117266 38,22.1333672 C38,15.4426328 32.6172467,10 26.0001004,10 Z" id="Path"></path>
                <path d="M33,3 C33,3.55197469 33.4480253,4 34,4 C34.5519747,4 35,3.55197469 35,3 C35.5519747,3 36,2.55197469 36,2 C36,1.44802531 35.5519747,1 35,1 C35,0.448025313 34.5519747,0 34,0 C33.4480253,0 33,0.447908121 33,0.999882808 C32.4480253,0.999882808 32,1.44790812 32,1.99988281 C32,2.55185749 32.4480253,3 33,3 Z" id="Path"></path>
                <path d="M7.86360416,22 C8.3402918,22 8.72720832,21.6299053 8.72720832,21.1739425 C8.72720832,12.0637859 16.4757608,4.65211499 26,4.65211499 C35.5242392,4.65211499 43.2727917,12.0637859 43.2727917,21.1739425 C43.2727917,21.6299053 43.6597082,22 44.1363958,22 C44.6130835,22 45,21.6299053 45,21.1739425 C45,11.1526347 36.4768048,3 26,3 C15.5231952,3 7,11.1526347 7,21.1739425 C7,21.6299053 7.38691653,22 7.86360416,22 Z" id="Path"></path>
                <path d="M18.5857301,30.4142699 L17.8400241,26.6891553 C17.7602705,26.2879767 17.4089128,26 17,26 C16.5911876,26 16.2397295,26.2879767 16.1599759,26.6891553 L15.4142699,30.4142699 L11.6891553,31.1599759 C11.2879767,31.2397295 11,31.5910872 11,32 C11,32.4088124 11.2879767,32.7602705 11.6891553,32.8400241 L15.4142699,33.5857301 L16.1599759,37.3108447 C16.2397295,37.7120233 16.5910872,38 17,38 C17.4088124,38 17.7602705,37.7120233 17.8400241,37.3108447 L18.5857301,33.5857301 L22.3108447,32.8400241 C22.7120233,32.7602705 23,32.4089128 23,32 C23,31.5911876 22.7120233,31.2397295 22.3108447,31.1599759 L18.5857301,30.4142699 Z M17.6891553,32.0170757 C17.3497506,32.0847758 17.0848763,32.3496501 17.0171761,32.6890548 L17,32.7722235 L16.9828239,32.6890548 C16.9151237,32.3496501 16.6502494,32.0847758 16.3108447,32.0170757 L16.227676,31.9998996 L16.3108447,31.9827234 C16.6502494,31.9150233 16.9151237,31.650149 16.9828239,31.3107443 L17,31.2275756 L17.0171761,31.3107443 C17.0848763,31.650149 17.3497506,31.9150233 17.6891553,31.9827234 L17.772324,31.9998996 L17.6891553,32.0170757 Z" id="Shape"></path>
                <path d="M50.1500332,12.3397877 C49.680873,12.3397877 49.3000664,12.7246783 49.3000664,13.19887 L49.3000664,46.7043873 C49.3000664,48.1253515 48.1559531,49.2817348 46.7500664,49.2817348 L26.3500664,49.2817348 L26.3500664,47.3049294 C27.5894062,46.8667803 30.8168496,45.845305 34.0000664,45.845305 C41.4035332,45.845305 46.4313164,47.5025596 46.4823164,47.5196748 C46.7399062,47.6064589 47.0254863,47.5617581 47.2473164,47.4010765 C47.4683496,47.2395896 47.6000332,46.9801433 47.6000332,46.7042866 L47.6000332,8.90335799 C47.6000332,8.55974522 47.3977266,8.248752 47.0849531,8.11384397 C47.0093496,8.08122442 45.2013398,7.31224863 41.6712832,7.01504825 C41.1978398,6.97125348 40.7932266,7.32694757 40.7541797,7.79942771 C40.7150332,8.27281396 41.0627695,8.6877065 41.5302363,8.72727281 C43.7198496,8.91111017 45.1827129,9.28824859 45.9000996,9.51336379 L45.9000996,45.5627029 C43.9739531,45.052368 39.6968262,44.1271405 34.0000664,44.1271405 C30.2965898,44.1271405 26.6586562,45.3565151 25.5331699,45.7732198 C24.5326934,45.3265132 21.5084531,44.1271405 17.85,44.1271405 C11.9951602,44.1271405 7.17147656,45.1031095 5.1,45.5988462 L5.1,9.56742768 C5.89558008,9.36899206 7.41960352,9.02014405 9.42394336,8.70834541 C9.88802344,8.63615955 10.2067734,8.19801047 10.1353535,7.72895337 C10.0631367,7.25989626 9.62535352,6.9360163 9.16635352,7.01071911 C6.05116992,7.49437447 4.09783008,8.05363874 4.01625,8.0777007 C3.65158008,8.18250612 3.3999668,8.52017891 3.3999668,8.90335799 L3.3999668,46.704488 C3.3999668,46.9733979 3.52487695,47.2277097 3.73744336,47.3901027 C3.88705664,47.5043718 4.06725,47.5636709 4.2500332,47.5636709 C4.32822656,47.5636709 4.40641992,47.5524957 4.48291992,47.5301453 C4.54158984,47.5138355 10.4193398,45.8454057 17.85,45.8454057 C20.9576133,45.8454057 23.613,46.8230862 24.6500332,47.2620407 L24.6500332,49.2818355 L4.2500332,49.2818355 C2.84414648,49.2818355 1.7000332,48.1254521 1.7000332,46.704488 L1.7000332,13.1989707 C1.7000332,12.724779 1.31922656,12.3398884 0.850066406,12.3398884 C0.38090625,12.3398884 0,12.7246783 0,13.19887 L0,46.7043873 C0,49.07303 1.90652344,51 4.2500332,51 L46.7500664,51 C49.0934766,51 51,49.07303 51,46.7043873 L51,13.19887 C51,12.7246783 50.6191934,12.3397877 50.1500332,12.3397877 Z" id="Path"></path>
                <path d="M7.66666667,2.66669271 L8.33333333,2.66669271 L8.33333333,3.33334635 C8.33333333,3.70132229 8.63201688,4 9,4 C9.36798312,4 9.66666667,3.70132229 9.66666667,3.33334635 L9.66666667,2.66669271 L10.3333333,2.66669271 C10.7013165,2.66669271 11,2.368015 11,2.00003906 C11,1.63206313 10.7013165,1.33338542 10.3333333,1.33338542 L9.66674479,1.33338542 L9.66674479,0.666653646 C9.66674479,0.298677709 9.36806125,0 9.00007813,0 C8.632095,0 8.33341146,0.298677709 8.33341146,0.666653646 L8.33341146,1.33330729 L7.66666667,1.33330729 C7.29868354,1.33330729 7,1.631985 7,1.99996094 C7,2.368015 7.29868354,2.66669271 7.66666667,2.66669271 Z" id="Path"></path>
                <path d="M25,14.8333035 L25,43.1666965 C25,43.6266589 25.2240127,44 25.5,44 C25.7759873,44 26,43.6266589 26,43.1666965 L26,14.8333035 C26,14.3733411 25.7759873,14 25.5,14 C25.2240127,14 25,14.3732434 25,14.8333035 Z" id="Path"></path>
                <path d="M40.1666992,23 C40.6266602,23 41,22.5991501 41,22.1052963 C41,13.2250498 34.2708008,6 26,6 C17.7291992,6 11,13.2250498 11,22.1052963 C11,22.5991501 11.3733398,23 11.8333008,23 C12.2932617,23 12.6666016,22.5991501 12.6666016,22.1052963 C12.6666016,14.2119186 18.6482422,7.78951231 25.9999023,7.78951231 C33.3515625,7.78951231 39.3332031,14.2119186 39.3332031,22.1052963 C39.3333008,22.5991501 39.7066406,23 40.1666992,23 Z" id="Path"></path>
            </g>
        </g>
    </g>
</svg>