<?xml version="1.0" encoding="UTF-8"?>
<svg width="53px" height="48px" viewBox="0 0 53 48" version="1.1" xmlns="http://www.w3.org/2000/svg" xmlns:xlink="http://www.w3.org/1999/xlink">
    <title>238102</title>
    <g id="Page-1" stroke="none" stroke-width="1" fill="none" fill-rule="evenodd">
        <g id="Artboard" transform="translate(-329.000000, -163.000000)" fill="#031435" fill-rule="nonzero">
            <g id="238102" transform="translate(329.000000, 163.000000)">
                <path d="M45.1427854,29 C44.6284968,29 44.2856712,29.3428313 44.2856712,29.8571285 C44.2856712,31.7428514 42.7428055,33.285743 40.8571142,33.285743 C40.3428256,33.285743 40,33.6285743 40,34.1428715 C40,34.6571687 40.3428256,35 40.8571142,35 C43.6857014,35 46,32.6856626 46,29.8570281 C46,29.3428313 45.657074,29 45.1427854,29 Z" id="Path"></path>
                <path d="M43,25.8571142 C43,25.3428256 42.6571744,25 42.1428858,25 C39.3142986,25 37,27.3142986 37,30.1428858 C37,30.6571744 37.3428256,31 37.8571142,31 C38.3714027,31 38.7142283,30.6571744 38.7142283,30.1428858 C38.7142283,28.2571945 40.2570941,26.7143288 42.1427854,26.7143288 C42.6571744,26.7142283 43,26.3714027 43,25.8571142 Z" id="Path"></path>
                <path d="M52.1167012,0 L0.883298828,0 C0.353298828,0 0,0.362306632 0,0.905660456 L0,40.7516429 C0,41.2949967 0.353298828,41.6571972 0.883298828,41.6571972 L37.1,41.6571972 L37.1,47.0907355 C37.1,47.452936 37.2767012,47.8152426 37.63,47.9057662 C37.9832988,48.0869195 38.3367012,47.9962898 38.6017012,47.7246129 L41.5167012,44.7361669 L44.4317012,47.7246129 C44.6084023,47.9057662 44.785,47.9962898 45.05,47.9962898 C45.1382988,47.9962898 45.315,47.9962898 45.4917012,47.9057662 C45.845,47.8152426 46.0217012,47.452936 46.0217012,47.0907355 L46.0217012,41.6571972 L52.1167012,41.6571972 C52.6467012,41.6571972 53,41.2949967 53,40.7516429 L53,0.905660456 C53,0.362306632 52.6467012,0 52.1167012,0 Z M41.5167012,37.1292133 C39.8274297,37.1292133 38.2721074,36.5128463 37.0529004,35.4893885 C37.0001074,35.4446042 36.9483496,35.3988649 36.8969023,35.352701 C36.8832383,35.3404968 36.8693672,35.3285048 36.8558066,35.3161944 C35.6779023,34.2434951 34.8610605,32.7996809 34.569043,31.1965749 C34.562418,31.1599622 34.555793,31.1233495 34.5497891,31.0865245 C34.5404727,31.0305973 34.5315703,30.9744578 34.5235996,30.9182122 C34.5115918,30.8327825 34.5005156,30.7470345 34.4914062,30.6607559 C34.4876797,30.6254166 34.4847812,30.5899713 34.4815723,30.5545259 C34.4742227,30.4729168 34.4679082,30.3909892 34.4631465,30.308531 C34.4612832,30.275951 34.4595234,30.2432649 34.4580742,30.2105787 C34.4533125,30.1023325 34.45,29.9937678 34.45,29.8844603 C34.45,25.8998302 37.63,22.6397073 41.5167012,22.6397073 C41.6233223,22.6397073 41.7291152,22.6432094 41.8345977,22.6479849 C41.866791,22.6494707 41.8988809,22.6512748 41.9308672,22.653185 C42.0095391,22.6578545 42.0879004,22.664328 42.1658477,22.6716506 C42.2090137,22.6757894 42.2520762,22.6799282 42.2950352,22.684916 C42.370084,22.6934059 42.4447187,22.7033816 42.519043,22.7143123 C42.5812559,22.7236512 42.6431582,22.7338391 42.704957,22.744876 C42.7275234,22.7488025 42.7499863,22.7531536 42.7724492,22.7572925 C44.9048711,23.1595016 46.7508652,24.5728583 47.7882988,26.6242312 C47.8193535,26.6879055 47.859,26.7456369 47.9044434,26.7976375 C48.3388984,27.7354535 48.5832988,28.7819402 48.5832988,29.8843542 C48.5832988,33.8690904 45.4032988,37.1292133 41.5167012,37.1292133 Z M47.7,23.4347868 C46.2028535,21.9259187 44.1884395,20.9552043 41.9626465,20.8402722 C41.8147227,20.8325252 41.6660742,20.8285986 41.5167012,20.8285986 C36.6584023,20.8285986 32.6834023,24.9037523 32.6834023,29.8844603 C32.6834023,30.0375969 32.6872324,30.1899907 32.6947891,30.3416416 C32.8068965,32.6235154 33.7537539,34.6887906 35.2255391,36.2235529 L8.745,36.2235529 C8.39170117,34.4123381 7.06670117,33.0539535 5.3,32.691753 L5.3,8.96533809 C7.06670117,8.60313759 8.39170117,7.24475303 8.745,5.43353824 L44.255,5.43353824 C44.6082988,7.24475303 45.9332988,8.60313759 47.7,8.96533809 L47.7,23.4347868 Z M44.1667012,44.9173202 L42.135,42.8344285 C41.9582988,42.6532752 41.7817012,42.5627516 41.5167012,42.5627516 C41.2517012,42.5627516 41.075,42.6532752 40.8984023,42.8344285 L38.8667012,44.9173202 L38.8667012,40.7516429 L38.8667012,38.5782276 C40.545,39.1215814 42.4884023,39.1215814 44.1667012,38.5782276 L44.1667012,40.7516429 L44.1667012,44.9173202 L44.1667012,44.9173202 Z M51.2334023,39.8459825 L46.0215977,39.8459825 L46.0215977,37.6637589 C48.607832,36.0795429 50.3498965,33.1809837 50.3498965,29.8844603 C50.3498965,28.4766221 50.0318965,27.1413725 49.4665977,25.9498145 L49.4665977,8.15030736 C49.4665977,7.60695353 49.1132988,7.24475303 48.5832988,7.24475303 C47.0815977,7.24475303 45.9332988,6.06752178 45.9332988,4.52798391 C45.9332988,3.98463008 45.58,3.62242958 45.05,3.62242958 L7.95,3.62242958 C7.42,3.62242958 7.06670117,3.98463008 7.06670117,4.52798391 C7.06670117,6.06752178 5.91840234,7.24475303 4.41670117,7.24475303 C3.88670117,7.24475303 3.53340234,7.60695353 3.53340234,8.15030736 L3.53340234,33.5067838 C3.53340234,34.0501376 3.88670117,34.4123381 4.41670117,34.4123381 C5.91840234,34.4123381 7.06670117,35.5895693 7.06670117,37.1291072 C7.06670117,37.672461 7.42,38.0346615 7.95,38.0346615 L37.1,38.0346615 L37.1,39.8459825 L1.76670117,39.8459825 L1.76670117,1.81110866 L51.2334023,1.81110866 L51.2334023,39.8459825 L51.2334023,39.8459825 Z" id="Shape"></path>
                <path d="M21.8571142,12 L32.1428858,12 C32.6571744,12 33,11.6000234 33,11 C33,10.3999766 32.6571744,10 32.1428858,10 L21.8571142,10 C21.3428256,10 21,10.3999766 21,11 C21,11.6000234 21.3428256,12 21.8571142,12 Z" id="Path"></path>
                <path d="M41.1175771,14 L12.8823195,14 C12.3529071,14 12,14.3999766 12,15 C12,15.6000234 12.3529071,16 12.8823195,16 L41.1176805,16 C41.6470929,16 42,15.6000234 42,15 C42,14.4000938 41.6469895,14 41.1175771,14 Z" id="Path"></path>
                <path d="M41.1175771,18 L12.8823195,18 C12.3529071,18 12,18.3999766 12,19 C12,19.6000234 12.3529071,20 12.8823195,20 L41.1176805,20 C41.6470929,20 42,19.6000234 42,19 C42,18.3999766 41.6469895,18 41.1175771,18 Z" id="Path"></path>
                <path d="M30.0624245,24 L16.9374657,24 C16.3749643,24 16,24.3999766 16,25 C16,25.6000234 16.3749643,26 16.9374657,26 L30.0625343,26 C30.6250357,26 31,25.6000234 31,25 C31,24.3999766 30.6249258,24 30.0624245,24 Z" id="Path"></path>
                <path d="M12.749978,26 L14.250022,26 C14.7000264,26 15,25.6000234 15,25 C15,24.3999766 14.7000264,24 14.250022,24 L12.749978,24 C12.2999736,24 12,24.3999766 12,25 C12,25.6000234 12.2999736,26 12.749978,26 Z" id="Path"></path>
                <path d="M19.2000281,27 L12.7999719,27 C12.31997,27 12,27.3999766 12,28 C12,28.6000234 12.31997,29 12.7999719,29 L19.2000281,29 C19.68003,29 20,28.6000234 20,28 C20.0000937,27.4000938 19.68003,27 19.2000281,27 Z" id="Path"></path>
                <path d="M30.2000281,27 L23.7999719,27 C23.31997,27 23,27.3999766 23,28 C23,28.6000234 23.31997,29 23.7999719,29 L30.2000281,29 C30.68003,29 31,28.6000234 31,28 C31.0000937,27.4000938 30.68003,27 30.2000281,27 Z" id="Path"></path>
            </g>
        </g>
    </g>
</svg>