<?xml version="1.0" encoding="UTF-8"?>
<svg width="53px" height="54px" viewBox="0 0 53 54" version="1.1" xmlns="http://www.w3.org/2000/svg" xmlns:xlink="http://www.w3.org/1999/xlink">
    <title>478514</title>
    <g id="Page-1" stroke="none" stroke-width="1" fill="none" fill-rule="evenodd">
        <g id="Artboard" transform="translate(-559.000000, -150.000000)" fill="#031435" fill-rule="nonzero">
            <g id="478514" transform="translate(559.000000, 150.000000)">
                <path d="M52.7370784,23.6708418 L43.5908392,13.3532373 C43.3917548,13.1286211 43.1055055,13 42.8048859,13 L10.195219,13 C9.89459942,13 9.60835005,13.1286211 9.40926566,13.3532373 L0.262921649,23.6708418 C-0.0102162649,23.9790095 -0.0768224765,24.4180988 0.0926824653,24.7930867 C0.156561493,24.9344652 0.249705298,25.056603 0.362988304,25.1541667 C0.365191029,25.1565718 0.366869296,25.1592907 0.369072021,25.1618003 L25.7153054,53.6482266 C25.9143898,53.8720064 26.2000098,54 26.5,54 C26.7999902,54 27.0856102,53.8719018 27.2846946,53.6482266 L52.630928,25.1618003 C52.6331307,25.1593952 52.6349139,25.1566764 52.6370117,25.1541667 C52.7501898,25.056603 52.8433336,24.9343607 52.9073175,24.7930867 C53.0768225,24.4180988 53.0102163,23.9790095 52.7370784,23.6708418 Z M40.9449468,15.0912947 L36.283456,22.5831051 L28.8130711,15.0912947 L40.9449468,15.0912947 Z M34.0578645,23.3176045 L18.9421355,23.3176045 L26.5,15.7380599 L34.0578645,23.3176045 Z M24.1869289,15.0913992 L16.716544,22.5832096 L12.0550532,15.0913992 L24.1869289,15.0913992 Z M10.0324271,15.8083309 L14.7048266,23.3176045 L3.3756869,23.3176045 L10.0324271,15.8083309 Z M3.39330871,25.4090037 L15.7891967,25.4090037 L24.3521332,48.964538 L3.39330871,25.4090037 Z M28.6867816,48.9208278 L34.6695928,32.7781535 C34.8703554,32.2363766 34.5926023,31.6349947 34.0492634,31.4348478 C33.5056099,31.2344918 32.9024828,31.5114976 32.701825,32.0532746 L26.5095451,48.7611495 L18.0205572,25.4090037 L49.6066913,25.4090037 L28.6867816,48.9208278 Z M38.2951734,23.3176045 L42.9675729,15.8083309 L49.6243131,23.3176045 L38.2951734,23.3176045 Z" id="Shape"></path>
                <path d="M27,0 C26.4478,0 26,0.500832017 26,1.11867772 L26,6.88132228 C26,7.49916798 26.4478,8 27,8 C27.5522,8 28,7.49916798 28,6.88132228 L28,1.11867772 C28,0.500832017 27.5522,0 27,0 Z" id="Path"></path>
                <path d="M36.6885772,4.31143248 C36.2733467,3.89618917 35.6002587,3.89618917 35.1847093,4.31143248 L31.3114228,8.18473276 C30.8961924,8.59997607 30.8961924,9.27329762 31.3114228,9.68854093 C31.5191975,9.89621576 31.7913037,10 32.0634099,10 C32.3355161,10 32.6076223,9.89610942 32.8152907,9.68854093 L36.6885772,5.81524065 C37.1038076,5.39999734 37.1038076,4.72667579 36.6885772,4.31143248 Z" id="Path"></path>
                <path d="M21.6885717,8.18473276 L17.8153229,4.31143248 C17.4001914,3.89618917 16.7270915,3.89618917 16.3114283,4.31143248 C15.8961906,4.72667579 15.8961906,5.39999734 16.3114283,5.81524065 L20.1847835,9.68854093 C20.3924555,9.89621576 20.6645666,10 20.9366776,10 C21.2087886,10 21.4808996,9.89610942 21.6885717,9.68854093 C22.1038094,9.27329762 22.1038094,8.59997607 21.6885717,8.18473276 Z" id="Path"></path>
                <circle id="Oval" cx="35" cy="28" r="1"></circle>
            </g>
        </g>
    </g>
</svg>