<?xml version="1.0" encoding="UTF-8"?>
<svg width="18px" height="13px" viewBox="0 0 18 13" version="1.1" xmlns="http://www.w3.org/2000/svg" xmlns:xlink="http://www.w3.org/1999/xlink">
    <title>561127</title>
    <g id="Page-1" stroke="none" stroke-width="1" fill="none" fill-rule="evenodd">
        <g id="Artboard" transform="translate(-614.000000, -266.000000)" fill="#031435" fill-rule="nonzero">
            <g id="561127" transform="translate(614.000000, 266.000000)">
                <path d="M16.4179688,0 L1.58203125,0 C0.710789062,0 0,0.6732 0,1.5 L0,11.5 C0,12.324 0.707625,13 1.58203125,13 L16.4179688,13 C17.2870313,13 18,12.3290667 18,11.5 L18,1.5 C18,0.676 17.292375,0 16.4179688,0 Z M16.1995078,1 L9.03353906,7.79443333 L1.80558984,1 L16.1995078,1 Z M1.0546875,11.2929333 L1.0546875,1.7023 L6.13402734,6.47696667 L1.0546875,11.2929333 Z M1.80045703,12 L6.88299609,7.181 L8.66390625,8.85506667 C8.8700625,9.04886667 9.20274609,9.04823333 9.40805859,8.85353333 L11.1445313,7.2071 L16.199543,12 L1.80045703,12 Z M16.9453125,11.2929 L11.8903008,6.5 L16.9453125,1.70706667 L16.9453125,11.2929 Z" id="Shape"></path>
            </g>
        </g>
    </g>
</svg>