<?xml version="1.0" encoding="UTF-8"?>
<svg width="50px" height="48px" viewBox="0 0 50 48" version="1.1" xmlns="http://www.w3.org/2000/svg" xmlns:xlink="http://www.w3.org/1999/xlink">
    <title>846449</title>
    <g id="Page-1" stroke="none" stroke-width="1" fill="none" fill-rule="evenodd">
        <g id="Artboard" transform="translate(-134.000000, -244.000000)" fill="#031435" fill-rule="nonzero">
            <g id="846449" transform="translate(134.000000, 244.000000)">
                <path d="M49.1602203,21.3254262 L44.9362961,17.4381768 L44.9362961,4.54843989 C44.9362961,3.72830138 44.2779956,3.06331353 43.4658865,3.06331353 L33.2984099,3.06331353 C32.4863985,3.06331353 31.8280003,3.72820274 31.8280003,4.54843989 L31.8280003,5.3743978 L26.7268304,0.679733566 C25.7421628,-0.226610733 24.2573001,-0.2265121 23.2730231,0.679634932 L0.839633251,21.3255248 C0.0509616771,22.0514683 -0.209682755,23.1699735 0.175668661,24.1749514 C0.561117732,25.1799293 1.49959394,25.8292344 2.56668337,25.8292344 L6.14959216,25.8292344 L6.14959216,46.514775 C6.14959216,47.3349135 6.80789269,48 7.62000176,48 L19.9161885,48 C20.7281999,48 21.3865981,47.3350122 21.3865981,46.514775 L21.3865981,33.9551649 L28.6132555,33.9551649 L28.6132555,46.5148736 C28.6132555,47.3350122 29.271556,48 30.0836651,48 L42.3793635,48 C43.1913749,48 43.8497731,47.3351108 43.8496754,46.5148736 L43.8496754,25.829333 L47.4333655,25.829333 C48.5003572,25.829333 49.4389311,25.1799293 49.8243802,24.17505 C50.2096339,23.1699735 49.9490872,22.0514683 49.1602203,21.3254262 Z M42.3793635,22.8590803 C41.5673521,22.8590803 40.9089539,23.5239695 40.9089539,24.3442067 L40.9089539,45.0297473 L31.5541723,45.0297473 L31.5541723,32.4700385 C31.5541723,31.6499 30.8957741,30.9849121 30.0837627,30.9849121 L19.9161885,30.9849121 C19.1041771,30.9849121 18.4457789,31.6498013 18.4457789,32.4700385 L18.4457789,45.0297473 L9.09031369,45.0297473 L9.09031369,24.3442067 C9.09031369,23.5240681 8.43201316,22.8590803 7.6199041,22.8590803 L3.53953456,22.8590803 L25.0000732,3.108685 L32.3082736,9.83460992 C32.7387422,10.2307225 33.3601286,10.3328083 33.892648,10.0953972 C34.425265,9.85769019 34.7689172,9.32487139 34.7689172,8.73681777 L34.7689172,6.03356625 L41.9956722,6.03356625 L41.9956722,18.0940903 C41.9956722,18.5120009 42.1698909,18.9103821 42.4757502,19.1918825 L46.4604166,22.8590803 L42.3793635,22.8590803 Z" id="Shape"></path>
            </g>
        </g>
    </g>
</svg>