<?xml version="1.0" encoding="UTF-8"?>
<svg width="58px" height="52px" viewBox="0 0 58 52" version="1.1" xmlns="http://www.w3.org/2000/svg" xmlns:xlink="http://www.w3.org/1999/xlink">
    <title>942832</title>
    <g id="Page-1" stroke="none" stroke-width="1" fill="none" fill-rule="evenodd">
        <g id="Artboard" transform="translate(-379.000000, -254.000000)" fill="#031435" fill-rule="nonzero">
            <g id="942832" transform="translate(379.000000, 254.000000)">
                <path d="M35.5565512,33.979075 C35.3980104,33.9321625 35.2313278,33.9217 35.068603,33.9454375 C35.0496052,33.9445375 35.0304944,33.9440875 35.0114967,33.9433 C36.4794122,32.516575 37.3931137,30.5276875 37.3931137,28.3296625 L37.3931137,17.125 C37.3931137,16.503775 36.8867331,16 36.2622951,16 L27.8857565,16 C24.4235293,16 21.6067733,18.8022625 21.6067733,22.246675 L21.6067733,28.32955 C21.6067733,30.527575 22.5204747,32.5164625 23.9883903,33.9431875 C23.9693925,33.943975 23.9502817,33.944425 23.9312839,33.945325 C23.7686722,33.9217 23.6018765,33.93205 23.4433357,33.9789625 C17.597456,34.501075 13,39.4014625 13,45.3509125 L13,50.875 C13,51.496225 13.5063806,52 14.1308186,52 L44.8691814,52 C45.4936194,52 46,51.496225 46,50.875 L46,45.351025 C46,39.4016875 41.4024309,34.5011875 35.5565512,33.979075 Z M23.8681842,23.8224625 L23.8681842,22.246675 L23.8681842,22.246675 C23.8681842,20.0429125 25.6704829,18.25 27.8855303,18.25 L35.1312503,18.25 L35.1312503,21.2606125 C35.1312503,22.7818375 33.8872368,24.01945 32.3581439,24.01945 L23.8681842,24.01945 L23.8681842,23.8224625 L23.8681842,23.8224625 Z M23.8681842,28.3296625 L23.8681842,26.26945 L32.3581439,26.26945 C33.3823263,26.26945 34.3353802,25.9628875 35.1312503,25.4383 L35.1312503,28.32955 C35.1312503,31.4188 32.6048886,33.9321625 29.4996608,33.9321625 C26.3944329,33.9321625 23.8681842,31.4189125 23.8681842,28.3296625 Z M32.5030018,36.1821625 L29.4997738,39.1699375 L26.4965459,36.1821625 L32.5030018,36.1821625 Z M43.7381367,49.75 L15.261411,49.75 L15.261411,46.51225 L24.4893429,46.51225 C25.1137809,46.51225 25.6201615,46.008475 25.6201615,45.38725 C25.6201615,44.766025 25.1137809,44.26225 24.4893429,44.26225 L15.3286947,44.26225 C15.8285165,40.0809625 19.1665799,36.755575 23.3673447,36.251125 L28.700172,41.5565125 C28.9210209,41.7761125 29.2103974,41.886025 29.4997738,41.886025 C29.7891503,41.886025 30.0785268,41.7761125 30.2993757,41.5565125 L35.632203,36.251125 C40.1920027,36.7986625 43.7381367,40.66945 43.7381367,45.351025 L43.7381367,49.75 Z" id="Shape"></path>
                <path d="M29.7069,45.293 C29.521,45.107 29.263,45 29,45 C28.737,45 28.479,45.107 28.293,45.293 C28.107,45.479 28,45.737 28,46 C28,46.263 28.1069,46.521 28.293,46.707 C28.479,46.8929 28.737,47 29,47 C29.263,47 29.521,46.893 29.7069,46.707 C29.8929,46.521 30,46.263 30,46 C30,45.737 29.893,45.479 29.7069,45.293 Z" id="Path"></path>
                <path d="M29.5,0 C27.0187237,0 25,2.03167458 25,4.52886925 C25,6.61357927 26.4073158,8.37280662 28.3157895,8.89744036 L28.3157895,11.8081923 C28.3157895,12.4663085 28.8460789,13 29.5,13 C30.1539211,13 30.6842105,12.4663085 30.6842105,11.8081923 L30.6842105,8.89744036 C32.5926842,8.37280662 34,6.61357927 34,4.52886925 C34,2.03167458 31.9812763,0 29.5,0 Z M29.5,6.6741231 C28.3246711,6.6741231 27.3684211,5.71173839 27.3684211,4.52886925 C27.3684211,3.34600011 28.3246711,2.38361539 29.5,2.38361539 C30.6753289,2.38361539 31.6315789,3.34600011 31.6315789,4.52886925 C31.6315789,5.71173839 30.6753289,6.6741231 29.5,6.6741231 Z" id="Shape"></path>
                <path d="M51.7793584,10.2205286 C50.9922086,9.43349051 49.945819,9 48.8327553,9 C47.7196916,9 46.6733021,9.43349051 45.8861522,10.2206382 C44.5298594,11.577037 44.3068081,13.643053 45.2150242,15.2341265 L43.321171,17.1279746 C42.892943,17.5562013 42.892943,18.2505757 43.321171,18.6789122 C43.5354494,18.8928611 43.8160731,19 44.0966967,19 C44.37743,19 44.657944,18.8928611 44.8721128,18.6788025 L46.7650887,16.7858318 C47.3879658,17.1429981 48.0953918,17.3343568 48.8327553,17.3343568 C49.945819,17.3343568 50.9922086,16.9008663 51.7792488,16.1138283 C52.5665083,15.3267902 53,14.2802939 53,13.1672332 C53,12.0541726 52.5665083,11.0076763 51.7793584,10.2205286 Z M50.2286359,14.56311 C49.4590319,15.3327119 48.2066981,15.3327119 47.4372037,14.56311 C46.66749,13.7933984 46.66749,12.5410681 47.4370941,11.7714662 C47.8218961,11.3865555 48.3273257,11.1942099 48.832865,11.1942099 C49.3384043,11.1942099 49.8438339,11.3865555 50.2286359,11.7714662 C50.6014848,12.1443141 50.8068807,12.6399825 50.8068807,13.1673429 C50.8068807,13.6945937 50.6014848,14.1902621 50.2286359,14.56311 Z" id="Shape"></path>
                <path d="M53.4711308,27 C51.3864207,27 49.6271934,28.4073158 49.1025596,30.3157895 L46.1918077,30.3157895 C45.5336915,30.3157895 45,30.8460789 45,31.5 C45,32.1539211 45.5336915,32.6842105 46.1918077,32.6842105 L49.1025596,32.6842105 C49.6271934,34.5926842 51.3864207,36 53.4711308,36 C55.9683254,36 58,33.9812763 58,31.5 C58,29.0187237 55.9683254,27 53.4711308,27 Z M53.4711308,33.6315789 C52.2882616,33.6315789 51.3258769,32.6753289 51.3258769,31.5 C51.3258769,30.3246711 52.2882616,29.3684211 53.4711308,29.3684211 C54.6539999,29.3684211 55.6163846,30.3246711 55.6163846,31.5 C55.6163846,32.6753289 54.6539999,33.6315789 53.4711308,33.6315789 Z" id="Shape"></path>
                <path d="M43.7069,30.293 C43.521,30.107 43.263,30 43,30 C42.737,30 42.479,30.1069 42.293,30.293 C42.107,30.4791 42,30.737 42,31 C42,31.264 42.1069,31.521 42.293,31.7069 C42.479,31.894 42.737,32 43,32 C43.263,32 43.521,31.8939 43.7069,31.7069 C43.8929,31.521 44,31.263 44,31 C44,30.737 43.893,30.48 43.7069,30.293 Z" id="Path"></path>
                <path d="M11.8081923,30.3157895 L8.89744036,30.3157895 C8.37280662,28.4073158 6.61357927,27 4.52886925,27 C2.03167458,27 0,29.0187237 0,31.5 C0,33.9812763 2.03167458,36 4.52886925,36 C6.61357927,36 8.37280662,34.5926842 8.89744036,32.6842105 L11.8081923,32.6842105 C12.4663085,32.6842105 13,32.1539211 13,31.5 C13,30.8460789 12.4664277,30.3157895 11.8081923,30.3157895 Z M4.52886925,33.6315789 C3.34600011,33.6315789 2.38361539,32.6753289 2.38361539,31.5 C2.38361539,30.3246711 3.34600011,29.3684211 4.52886925,29.3684211 C5.71173839,29.3684211 6.6741231,30.3246711 6.6741231,31.5 C6.6741231,32.6753289 5.71173839,33.6315789 4.52886925,33.6315789 Z" id="Shape"></path>
                <path d="M14.678763,17.1278649 L12.7853978,15.2350038 C13.1427482,14.6121285 13.3340371,13.9045948 13.3340371,13.1672332 C13.3340371,12.0541726 12.9004563,11.0076763 12.1131445,10.2205286 C11.3258328,9.43349051 10.279228,9 9.16593544,9 C8.05264284,9 7.0060381,9.43349051 6.21872635,10.2206382 C4.59375788,11.8453778 4.59375788,14.4890887 6.21872635,16.1138283 C7.0060381,16.9008663 8.05264284,17.3343568 9.16604512,17.3343568 C9.90356034,17.3343568 10.6112415,17.1429981 11.2342466,16.7858318 L13.1276119,18.6788025 C13.3418247,18.8928611 13.6225061,19 13.9031874,19 C14.1838688,19 14.4645501,18.8928611 14.678763,18.6788025 C15.107079,18.2505757 15.107079,17.5562013 14.678763,17.1278649 Z M10.5626515,14.5625617 C10.5625418,14.562781 10.5623224,14.5628907 10.5621031,14.56311 C9.79234077,15.3329312 8.53974948,15.3329312 7.77009685,14.56311 C7.00022485,13.7933984 7.00022485,12.5410681 7.76998717,11.7714662 C8.15486832,11.3866652 8.66040188,11.1942099 9.16604512,11.1942099 C9.67168837,11.1942099 10.1772219,11.3866652 10.5621031,11.7714662 C10.9350287,12.1443141 11.1404668,12.6399825 11.1404668,13.1673429 C11.1404668,13.6942647 10.9351384,14.1898234 10.5626515,14.5625617 Z" id="Shape"></path>
            </g>
        </g>
    </g>
</svg>