<?xml version="1.0" encoding="UTF-8"?>
<svg width="50px" height="50px" viewBox="0 0 50 50" version="1.1" xmlns="http://www.w3.org/2000/svg" xmlns:xlink="http://www.w3.org/1999/xlink">
    <title>994410</title>
    <g id="Page-1" stroke="none" stroke-width="1" fill="none" fill-rule="evenodd">
        <g id="Artboard" transform="translate(-240.000000, -161.000000)" fill="#031435" fill-rule="nonzero">
            <g id="994410" transform="translate(240.000000, 161.000000)">
                <path d="M16.5,0 C9.59645833,0 4,5.69821212 4,12.7272727 L4,22.0606061 C4.00364583,25.3392576 6.61322917,27.9962879 9.83333333,28 L10.6666667,28 L10.6666667,26.3030303 L9.83333333,26.3030303 C7.53333333,26.3002727 5.669375,24.4024242 5.66666667,22.0606061 L5.66666667,12.7272727 C5.66666667,6.63536364 10.516875,1.6969697 16.5,1.6969697 C22.483125,1.6969697 27.3333333,6.63536364 27.3333333,12.7272727 L27.3333333,22.0606061 C27.330625,24.4024242 25.4666667,26.3002727 23.1666667,26.3030303 L22.3333333,26.3030303 L22.3333333,28 L23.1666667,28 C26.3867708,27.9962879 28.9963542,25.3392576 29,22.0606061 L29,12.7272727 C29,5.69821212 23.4035417,0 16.5,0 Z" id="Path"></path>
                <path d="M6.44783898,38.9146018 L7,37.9232808 L5.72421347,37 L5.17205245,37.9921823 C3.50206752,40.9928448 3.62603937,44.8564993 5.48401209,47.7098847 L5.48401209,50 L6.99471255,50 L6.99471255,47.4161919 C6.99480697,47.2205761 6.93645616,47.0306662 6.82929085,46.8778985 C5.22341627,44.5888598 5.07017459,41.3894594 6.44783898,38.9146018 Z" id="Path"></path>
                <path d="M45.8695652,0 L35.1304348,0 C32.8504348,0.00272999829 31.0026848,1.88159882 31,4.19999737 L31,12.5999921 C31.0026848,14.9183907 32.8504348,16.7972595 35.1304348,16.7999895 L36.7826087,16.7999895 L36.7826087,20.1599874 C36.7825054,20.4996622 36.9836576,20.806052 37.2923043,20.9361469 C37.3925707,20.9786719 37.5000652,21.0003019 37.6086957,21 C37.8278152,21 38.0378478,20.9113669 38.1927391,20.753867 L42.0811304,16.7999895 L45.8695652,16.7999895 C48.1495652,16.7972595 49.9973152,14.9183907 50,12.5999921 L50,4.19999737 C49.9973152,1.88159882 48.1495652,0.00272999829 45.8695652,0 Z M48.3478261,12.5999921 C48.3478261,13.9917662 47.238288,15.1199905 45.8695652,15.1199905 L41.7391304,15.1199905 C41.5200109,15.1199905 41.3099783,15.2086105 41.155087,15.3661104 L38.4347826,18.1322287 L38.4347826,15.95999 C38.4347826,15.4961003 38.0649022,15.1199905 37.6086957,15.1199905 L35.1304348,15.1199905 C33.761712,15.1199905 32.6521739,13.9917662 32.6521739,12.5999921 L32.6521739,4.19999737 C32.6521739,2.80822324 33.761712,1.67999895 35.1304348,1.67999895 L45.8695652,1.67999895 C47.238288,1.67999895 48.3478261,2.80822324 48.3478261,4.19999737 L48.3478261,12.5999921 Z" id="Shape"></path>
                <rect id="Rectangle" x="35" y="4" width="6" height="2"></rect>
                <rect id="Rectangle" x="43" y="4" width="3" height="2"></rect>
                <rect id="Rectangle" x="35" y="7" width="11" height="2"></rect>
                <rect id="Rectangle" x="35" y="11" width="6" height="2"></rect>
                <path d="M27.8279475,37.9921823 L27.2757865,37 L26,37.9232808 L26.552161,38.9154631 C27.9299198,41.3899977 27.7766782,44.5891828 26.1707092,46.8778985 C26.0635438,47.0306662 26.005193,47.2205761 26.0052875,47.4161919 L26.0052875,50 L27.5159879,50 L27.5159879,47.7098847 C29.3739606,44.8564993 29.4979325,40.9928448 27.8279475,37.9921823 Z" id="Path"></path>
                <path d="M49.1666667,28.1935227 L41.6666667,28.1935227 C38.54,28.1971921 35.9722917,30.6812434 35.845,33.8254648 L33.3333333,38.3763089 L33.3333333,34.903208 C33.3296875,31.6623252 30.7201042,29.0359027 27.5,29.0322334 L24.4541667,29.0322334 L24.4316667,29.0146204 L24.4166667,29.0322334 L22.5,29.0322334 C21.5794792,29.0322334 20.8333333,28.2812728 20.8333333,27.354812 L20.8333333,25.3813258 C23.4082292,23.885066 24.9960417,21.1214095 25,18.1289947 L25,11.4193094 C24.99875,10.0296706 24.6552083,8.66204807 24,7.43878856 C23.7901042,7.04962681 23.3157292,6.89163469 22.9166667,7.07814298 L8.81166667,13.7576347 C8.51958333,13.896022 8.33322917,14.1917723 8.33333333,14.5166679 L8.33333333,18.1289947 C8.33729167,21.1214095 9.92510417,23.885066 12.5,25.3813258 L12.5,27.354812 C12.5,28.2812728 11.7538542,29.0322334 10.8333333,29.0322334 L5.83333333,29.0322334 C2.61322917,29.0359027 0.00364583333,31.6623252 0,34.903208 L0,50 L1.66666667,50 L1.66666667,34.903208 C1.669375,32.5883666 3.53333333,30.7123805 5.83333333,30.7096547 L8.485,30.7096547 L15.9891667,41.2623123 C16.1433333,41.4792238 16.3908333,41.6093288 16.6558333,41.6128933 L16.6666667,41.6128933 C16.9289583,41.6128933 17.1759375,41.4885545 17.3333333,41.2774091 L25.25,30.7096547 L27.5,30.7096547 C29.8,30.7123805 31.6639583,32.5883666 31.6666667,34.903208 L31.6666667,41.6128933 C31.6670833,42.0760713 32.0405208,42.4512895 32.5007292,42.4508701 C32.8030208,42.4505556 33.0814583,42.2856441 33.2283333,42.019668 L37.1566667,34.903208 L41.9341667,34.903208 L33.8091667,50 L35.705,50 L43.8333333,34.903208 L44.1666667,34.903208 C47.3867708,34.8995387 49.9963542,32.2731162 50,29.0322334 C50,28.5690554 49.626875,28.1935227 49.1666667,28.1935227 Z M10,18.1289947 L10,15.0492491 L22.8675,8.95517744 C23.1753125,9.73979127 23.3333333,10.5757761 23.3333333,11.4193094 L23.3333333,18.1289947 C23.3333333,21.8346281 20.3485417,24.83868 16.6666667,24.83868 C12.9847917,24.83868 10,21.8346281 10,18.1289947 Z M16.6841667,39.3584391 L14.1125,35.7419187 L19.3925,35.7419187 L16.6841667,39.3584391 Z M20.6533333,34.0644974 L12.9166667,34.0644974 L10.5308333,30.7096547 L10.8333333,30.7096547 C12.6742708,30.7096547 14.1666667,29.2076287 14.1666667,27.354812 L14.1666667,26.1294557 C15.7939583,26.6449483 17.539375,26.6449483 19.1666667,26.1294557 L19.1666667,27.354812 C19.1666667,29.2076287 20.6590625,30.7096547 22.5,30.7096547 L23.1666667,30.7096547 L20.6533333,34.0644974 Z M44.1666667,33.2257867 L37.5833333,33.2257867 C37.9817708,31.2744215 39.6872917,29.8731456 41.6666667,29.870944 L48.25,29.870944 C47.8515625,31.8223092 46.1460417,33.2235851 44.1666667,33.2257867 Z" id="Shape"></path>
            </g>
        </g>
    </g>
</svg>